# xmcd
#
# Track frame offsets: 
#        150
#        11109
#        32413
#        45666
#        58037
#        87657
#        112832
#        125912
#        139717
#        153765
#        169588
#        184304
#        200224
#        218891
#        231071
#        244535
#        266075
#        278282
#        294757
#        308946
#        324931
#        345682
#
# Disc length: 4788 seconds
#
# Revision: 0
# Processed by: cddbd v1.5.2PL0 Copyright (c) Steve Scherf et al.
# Submitted via: ExactAudioCopyFreeDBPlugin 1.0
#
DISCID=3912b216
DTITLE=Hunter, Alberta - Alberta Hunter with Lovie Austin's Blues Sere
DTITLE=naders - Chicago Legends
DYEAR=1961
DGENRE=
TTITLE0=St. Louis Blues
TTITLE1=Moanin' Low
TTITLE2=Downhearted Blues
TTITLE3=Now I'm Satisfied
TTITLE4=Sweet Georgia Brown
TTITLE5=You Better Change
TTITLE6=C-Jam Blues
TTITLE7=Streets Paved with Gold
TTITLE8=Gallion Stomp
TTITLE9=I Will Always Be in Love with You
TTITLE10=I Got Myself a Workin' Man
TTITLE11=St. Louis Blues
TTITLE12=Black Snake Blues
TTITLE13=I Got a Mind to Ramble
TTITLE14=You'll Want My Love
TTITLE15=Going Blues
TTITLE16=You Gotta Reap What You Sow
TTITLE17=Arkansas Blues
TTITLE18=Got the Blues so Bad
TTITLE19=Chirpin' the Blues
TTITLE20=Has Anybody Seen My Corine
TTITLE21=Let Him Beat Me
EXTD=
EXTT0=
EXTT1=
EXTT2=
EXTT3=
EXTT4=
EXTT5=
EXTT6=
EXTT7=
EXTT8=
EXTT9=
EXTT10=
EXTT11=
EXTT12=
EXTT13=
EXTT14=
EXTT15=
EXTT16=
EXTT17=
EXTT18=
EXTT19=
EXTT20=
EXTT21=
PLAYORDER=
